<?xml version="1.0" encoding="utf-8"?>
<!-- Generator: Adobe Illustrator 27.5.0, SVG Export Plug-In . SVG Version: 6.00 Build 0)  -->
<svg version="1.1" id="Layer_1" xmlns="http://www.w3.org/2000/svg" xmlns:xlink="http://www.w3.org/1999/xlink" x="0px" y="0px"
	 viewBox="0 0 5000 2916" style="enable-background:new 0 0 5000 2916;" xml:space="preserve">
<g>
	<rect x="0" style="fill-rule:evenodd;clip-rule:evenodd;" width="5000" height="2916"/>
	<path style="fill-rule:evenodd;clip-rule:evenodd;fill:#E6E6E6;" d="M5000,0c-1291.782,250.716-639.913,520.538,0,746.562V0z
		 M4749.429,1938.557C3500.797,2323.468,4222.451,2916,4222.451,2916H5000V1226.098c-155.015,9.711-338.891,17.843-555.206,24.283
		C1624.089,1334.361,5998.063,1553.646,4749.429,1938.557z"/>
	<path style="opacity:0.21;fill-rule:evenodd;clip-rule:evenodd;fill:#E6E6E6;" d="M5000,0h-781.32
		c-530.495,306.348-275.858,301.911,61.508,259.093c444.594-56.426,1032.87-179.503,157.205,254.234
		c-38.529,19.085-79.894,39.249-124.233,60.544c-1578.349,758.069,798.484,290.375,639.737,655.078
		c-23.955,55.036-105.655,129.028-267.402,229.052c-68.35,42.266-129.172,84.323-183.094,126.065
		c-311.47,241.134-392.629,471.772-363.791,671.348C4194.884,2644.851,4669.994,2916,4669.994,2916H5000V1226.098V746.562V0z"/>
</g>
</svg>
